G04 Layer: BottomSolderMaskLayer*
G04 EasyEDA v6.4.7, 2021-04-23T08:58:56+01:00*
G04 f878487c93b54eac8d99160b99debade,c10319bd9b054561a6d5c4568292690b,NaN*
G04 Gerber Generator version 0.2*
G04 Scale: 100 percent, Rotated: No, Reflected: No *
G04 Dimensions in millimeters *
G04 leading zeros omitted , absolute positions ,3 integer and 3 decimal *
%FSLAX33Y33*%
%MOMM*%
G90*
D02*

%ADD17C,1.727200*%
%ADD18C,1.203198*%
%ADD19C,2.997200*%
%ADD20C,1.854200*%

%LPD*%
G54D17*
G01X39624Y45339D03*
G01X34544Y45339D03*
G01X21844Y45339D03*
G01X19304Y45339D03*
G01X16764Y45339D03*
G01X14224Y45339D03*
G01X37084Y45339D03*
G01X11684Y45339D03*
G01X9144Y45339D03*
G01X6604Y45339D03*
G01X6604Y47879D03*
G01X6604Y50419D03*
G01X6604Y52959D03*
G01X6604Y55499D03*
G01X6604Y58039D03*
G01X6604Y60579D03*
G01X9144Y60579D03*
G01X11684Y60579D03*
G01X14224Y60579D03*
G01X16764Y60579D03*
G01X19304Y60579D03*
G01X21844Y60579D03*
G01X24384Y60579D03*
G01X26924Y60579D03*
G01X29464Y60579D03*
G01X32004Y60579D03*
G01X34544Y60579D03*
G01X37084Y60579D03*
G01X39624Y60579D03*
G54D18*
G01X19304Y55499D03*
G01X19304Y52959D03*
G01X19304Y50419D03*
G01X19304Y47879D03*
G01X21844Y58039D03*
G01X21844Y55499D03*
G01X21844Y52959D03*
G01X21844Y50419D03*
G01X21844Y47879D03*
G01X19304Y58039D03*
G01X26924Y58039D03*
G01X26924Y55880D03*
G01X26924Y53721D03*
G01X26924Y51435D03*
G01X26924Y49403D03*
G01X26924Y47498D03*
G01X39624Y55499D03*
G01X39624Y51816D03*
G54D19*
G01X15240Y29083D03*
G01X8890Y26543D03*
G54D20*
G01X10160Y36703D03*
G36*
G01X11772Y35775D02*
G01X11772Y37630D01*
G01X13627Y37630D01*
G01X13627Y35775D01*
G01X11772Y35775D01*
G37*
G36*
G01X23202Y15455D02*
G01X23202Y17310D01*
G01X25057Y17310D01*
G01X25057Y15455D01*
G01X23202Y15455D01*
G37*
G01X21590Y16383D03*
G54D19*
G01X20320Y6223D03*
G01X26670Y8763D03*
G36*
G01X34632Y35775D02*
G01X34632Y37630D01*
G01X36487Y37630D01*
G01X36487Y35775D01*
G01X34632Y35775D01*
G37*
G54D20*
G01X33020Y36703D03*
G54D19*
G01X31750Y26543D03*
G01X38100Y29083D03*
G54D17*
G01X24384Y45339D03*
G01X26924Y45339D03*
G01X29464Y45339D03*
G01X32004Y45339D03*
M00*
M02*
