G04 Layer: TopLayer*
G04 EasyEDA v6.4.7, 2021-04-23T08:58:56+01:00*
G04 f878487c93b54eac8d99160b99debade,c10319bd9b054561a6d5c4568292690b,NaN*
G04 Gerber Generator version 0.2*
G04 Scale: 100 percent, Rotated: No, Reflected: No *
G04 Dimensions in millimeters *
G04 leading zeros omitted , absolute positions ,3 integer and 3 decimal *
%FSLAX33Y33*%
%MOMM*%
G90*
D02*

%ADD10C,0.254000*%
%ADD12C,1.524000*%
%ADD13C,0.999998*%
%ADD14C,2.794000*%
%ADD15C,1.651000*%

%LPD*%
G54D10*
G01X15240Y29083D02*
G01X22733Y21590D01*
G01X44450Y21590D01*
G01X38100Y29083D02*
G01X44450Y29083D01*
G01X39624Y60579D02*
G01X44450Y60579D01*
G01X44450Y8763D01*
G01X26670Y8763D01*
G01X20320Y6223D02*
G01X1397Y6223D01*
G01X1397Y42291D01*
G01X24384Y42291D01*
G01X24384Y45339D01*
G01X8890Y26543D02*
G01X2540Y26543D01*
G01X2540Y40640D01*
G01X26924Y40640D01*
G01X26924Y45339D01*
G01X29464Y45339D02*
G01X29464Y39243D01*
G01X26670Y39243D01*
G01X26670Y26543D01*
G01X31750Y26543D01*

%LPD*%
G36*
G01X42239Y1603D02*
G01X42217Y1605D01*
G01X42206Y1604D01*
G01X42196Y1603D01*
G01X42185Y1601D01*
G01X42176Y1597D01*
G01X42167Y1592D01*
G01X42157Y1586D01*
G01X42141Y1574D01*
G01X42127Y1558D01*
G01X42122Y1548D01*
G01X42118Y1539D01*
G01X42113Y1529D01*
G01X42110Y1518D01*
G01X42108Y1507D01*
G01X42108Y1484D01*
G01X42110Y1473D01*
G01X42113Y1463D01*
G01X42118Y1452D01*
G01X42122Y1444D01*
G01X42127Y1435D01*
G01X42141Y1419D01*
G01X42149Y1412D01*
G01X42157Y1406D01*
G01X42167Y1401D01*
G01X42185Y1393D01*
G01X42196Y1391D01*
G01X42206Y1389D01*
G01X42228Y1389D01*
G01X42250Y1393D01*
G01X42270Y1401D01*
G01X42278Y1406D01*
G01X42286Y1412D01*
G01X42293Y1419D01*
G01X42307Y1435D01*
G01X42318Y1452D01*
G01X42322Y1463D01*
G01X42324Y1473D01*
G01X42326Y1484D01*
G01X42326Y1507D01*
G01X42322Y1529D01*
G01X42318Y1539D01*
G01X42313Y1548D01*
G01X42307Y1558D01*
G01X42293Y1574D01*
G01X42286Y1580D01*
G01X42270Y1592D01*
G01X42260Y1597D01*
G01X42250Y1601D01*
G01X42239Y1603D01*
G37*

%LPD*%
G36*
G01X42291Y1328D02*
G01X41968Y1328D01*
G01X41968Y1191D01*
G01X42146Y1191D01*
G01X42146Y899D01*
G01X41955Y899D01*
G01X41955Y762D01*
G01X42456Y762D01*
G01X42456Y899D01*
G01X42291Y899D01*
G01X42291Y1328D01*
G37*

%LPD*%
G36*
G01X40895Y1345D02*
G01X40873Y1346D01*
G01X40846Y1344D01*
G01X40820Y1339D01*
G01X40795Y1330D01*
G01X40772Y1318D01*
G01X40752Y1304D01*
G01X40735Y1287D01*
G01X40721Y1267D01*
G01X40711Y1244D01*
G01X40690Y1244D01*
G01X40690Y1328D01*
G01X40546Y1328D01*
G01X40546Y762D01*
G01X40690Y762D01*
G01X40690Y1056D01*
G01X40692Y1090D01*
G01X40698Y1120D01*
G01X40708Y1147D01*
G01X40721Y1170D01*
G01X40738Y1189D01*
G01X40760Y1203D01*
G01X40786Y1211D01*
G01X40817Y1214D01*
G01X40843Y1212D01*
G01X40865Y1205D01*
G01X40884Y1194D01*
G01X40901Y1178D01*
G01X40913Y1160D01*
G01X40922Y1138D01*
G01X40928Y1113D01*
G01X40929Y1084D01*
G01X40929Y762D01*
G01X41074Y762D01*
G01X41074Y1120D01*
G01X41073Y1148D01*
G01X41070Y1174D01*
G01X41065Y1199D01*
G01X41059Y1221D01*
G01X41050Y1242D01*
G01X41040Y1260D01*
G01X41029Y1276D01*
G01X41015Y1290D01*
G01X41001Y1303D01*
G01X40985Y1314D01*
G01X40969Y1323D01*
G01X40952Y1330D01*
G01X40934Y1337D01*
G01X40914Y1342D01*
G01X40895Y1345D01*
G37*

%LPD*%
G36*
G01X40373Y1562D02*
G01X39839Y1562D01*
G01X39839Y1417D01*
G01X40030Y1417D01*
G01X40030Y906D01*
G01X39839Y906D01*
G01X39839Y762D01*
G01X40373Y762D01*
G01X40373Y906D01*
G01X40182Y906D01*
G01X40182Y1417D01*
G01X40373Y1417D01*
G01X40373Y1562D01*
G37*

%LPD*%
G36*
G01X37397Y1345D02*
G01X37376Y1346D01*
G01X37348Y1344D01*
G01X37322Y1339D01*
G01X37297Y1330D01*
G01X37274Y1318D01*
G01X37254Y1304D01*
G01X37237Y1287D01*
G01X37224Y1267D01*
G01X37213Y1244D01*
G01X37193Y1244D01*
G01X37193Y1328D01*
G01X37048Y1328D01*
G01X37048Y762D01*
G01X37193Y762D01*
G01X37193Y1056D01*
G01X37195Y1090D01*
G01X37200Y1120D01*
G01X37210Y1147D01*
G01X37223Y1170D01*
G01X37240Y1189D01*
G01X37263Y1203D01*
G01X37289Y1211D01*
G01X37320Y1214D01*
G01X37345Y1212D01*
G01X37367Y1205D01*
G01X37387Y1194D01*
G01X37404Y1178D01*
G01X37416Y1160D01*
G01X37424Y1138D01*
G01X37430Y1113D01*
G01X37431Y1084D01*
G01X37431Y762D01*
G01X37576Y762D01*
G01X37576Y1120D01*
G01X37575Y1148D01*
G01X37572Y1174D01*
G01X37568Y1199D01*
G01X37561Y1221D01*
G01X37552Y1242D01*
G01X37543Y1260D01*
G01X37531Y1276D01*
G01X37518Y1290D01*
G01X37504Y1303D01*
G01X37488Y1314D01*
G01X37472Y1323D01*
G01X37436Y1337D01*
G01X37417Y1342D01*
G01X37397Y1345D01*
G37*

%LPD*%
G36*
G01X43642Y1344D02*
G01X43606Y1346D01*
G01X43577Y1344D01*
G01X43550Y1340D01*
G01X43523Y1333D01*
G01X43497Y1323D01*
G01X43471Y1312D01*
G01X43448Y1298D01*
G01X43425Y1282D01*
G01X43406Y1264D01*
G01X43387Y1245D01*
G01X43370Y1222D01*
G01X43356Y1199D01*
G01X43345Y1173D01*
G01X43334Y1146D01*
G01X43327Y1117D01*
G01X43323Y1086D01*
G01X43322Y1054D01*
G01X43322Y1046D01*
G01X43323Y1012D01*
G01X43327Y980D01*
G01X43333Y950D01*
G01X43342Y922D01*
G01X43354Y895D01*
G01X43369Y869D01*
G01X43385Y846D01*
G01X43403Y825D01*
G01X43423Y807D01*
G01X43444Y791D01*
G01X43468Y778D01*
G01X43492Y767D01*
G01X43519Y757D01*
G01X43548Y751D01*
G01X43578Y747D01*
G01X43609Y746D01*
G01X43636Y747D01*
G01X43662Y749D01*
G01X43685Y753D01*
G01X43708Y759D01*
G01X43728Y766D01*
G01X43746Y773D01*
G01X43763Y781D01*
G01X43779Y789D01*
G01X43792Y800D01*
G01X43804Y810D01*
G01X43815Y821D01*
G01X43834Y844D01*
G01X43842Y855D01*
G01X43850Y867D01*
G01X43855Y878D01*
G01X43731Y947D01*
G01X43724Y935D01*
G01X43714Y923D01*
G01X43703Y912D01*
G01X43690Y901D01*
G01X43674Y894D01*
G01X43655Y888D01*
G01X43633Y884D01*
G01X43606Y883D01*
G01X43594Y884D01*
G01X43581Y885D01*
G01X43568Y887D01*
G01X43555Y891D01*
G01X43543Y896D01*
G01X43532Y901D01*
G01X43521Y908D01*
G01X43512Y916D01*
G01X43503Y925D01*
G01X43494Y933D01*
G01X43487Y942D01*
G01X43482Y952D01*
G01X43477Y963D01*
G01X43474Y973D01*
G01X43471Y986D01*
G01X43469Y998D01*
G01X43886Y998D01*
G01X43886Y1074D01*
G01X43885Y1097D01*
G01X43882Y1120D01*
G01X43877Y1144D01*
G01X43870Y1168D01*
G01X43862Y1190D01*
G01X43850Y1212D01*
G01X43836Y1233D01*
G01X43820Y1254D01*
G01X43802Y1273D01*
G01X43781Y1289D01*
G01X43759Y1304D01*
G01X43733Y1318D01*
G01X43705Y1330D01*
G01X43675Y1339D01*
G01X43642Y1344D01*
G37*

%LPC*%
G36*
G01X43633Y1212D02*
G01X43606Y1214D01*
G01X43580Y1212D01*
G01X43556Y1207D01*
G01X43535Y1198D01*
G01X43517Y1186D01*
G01X43501Y1171D01*
G01X43488Y1156D01*
G01X43478Y1139D01*
G01X43472Y1122D01*
G01X43741Y1122D01*
G01X43735Y1140D01*
G01X43726Y1158D01*
G01X43714Y1173D01*
G01X43698Y1188D01*
G01X43679Y1199D01*
G01X43657Y1207D01*
G01X43633Y1212D01*
G37*

%LPD*%
G36*
G01X43195Y1562D02*
G01X43050Y1562D01*
G01X43050Y1247D01*
G01X43030Y1247D01*
G01X43017Y1268D01*
G01X43002Y1287D01*
G01X42985Y1304D01*
G01X42966Y1318D01*
G01X42945Y1330D01*
G01X42920Y1339D01*
G01X42892Y1344D01*
G01X42859Y1346D01*
G01X42833Y1344D01*
G01X42808Y1341D01*
G01X42784Y1334D01*
G01X42760Y1325D01*
G01X42738Y1314D01*
G01X42717Y1301D01*
G01X42697Y1286D01*
G01X42679Y1270D01*
G01X42663Y1250D01*
G01X42649Y1227D01*
G01X42637Y1204D01*
G01X42626Y1178D01*
G01X42617Y1151D01*
G01X42611Y1121D01*
G01X42606Y1090D01*
G01X42605Y1056D01*
G01X42605Y1036D01*
G01X42606Y1001D01*
G01X42610Y969D01*
G01X42616Y939D01*
G01X42623Y911D01*
G01X42634Y885D01*
G01X42647Y862D01*
G01X42661Y840D01*
G01X42677Y820D01*
G01X42694Y803D01*
G01X42713Y788D01*
G01X42733Y775D01*
G01X42755Y764D01*
G01X42779Y756D01*
G01X42802Y751D01*
G01X42827Y747D01*
G01X42852Y746D01*
G01X42873Y747D01*
G01X42891Y748D01*
G01X42908Y750D01*
G01X42938Y758D01*
G01X42951Y763D01*
G01X42963Y768D01*
G01X42974Y774D01*
G01X42992Y790D01*
G01X43000Y799D01*
G01X43007Y807D01*
G01X43014Y816D01*
G01X43026Y834D01*
G01X43030Y843D01*
G01X43050Y843D01*
G01X43050Y762D01*
G01X43195Y762D01*
G01X43195Y1562D01*
G37*

%LPC*%
G36*
G01X42932Y1206D02*
G01X42900Y1209D01*
G01X42868Y1206D01*
G01X42839Y1198D01*
G01X42813Y1184D01*
G01X42791Y1165D01*
G01X42772Y1143D01*
G01X42758Y1117D01*
G01X42750Y1086D01*
G01X42748Y1051D01*
G01X42748Y1038D01*
G01X42750Y1004D01*
G01X42758Y974D01*
G01X42772Y947D01*
G01X42791Y924D01*
G01X42813Y906D01*
G01X42839Y894D01*
G01X42868Y886D01*
G01X42900Y883D01*
G01X42932Y886D01*
G01X42961Y894D01*
G01X42986Y908D01*
G01X43009Y927D01*
G01X43027Y949D01*
G01X43040Y975D01*
G01X43047Y1005D01*
G01X43050Y1038D01*
G01X43050Y1051D01*
G01X43047Y1085D01*
G01X43040Y1115D01*
G01X43027Y1142D01*
G01X43009Y1165D01*
G01X42986Y1184D01*
G01X42961Y1198D01*
G01X42932Y1206D01*
G37*

%LPD*%
G36*
G01X41524Y1345D02*
G01X41498Y1346D01*
G01X41478Y1345D01*
G01X41458Y1343D01*
G01X41439Y1339D01*
G01X41419Y1333D01*
G01X41400Y1326D01*
G01X41382Y1318D01*
G01X41365Y1310D01*
G01X41351Y1300D01*
G01X41336Y1288D01*
G01X41323Y1275D01*
G01X41312Y1260D01*
G01X41302Y1244D01*
G01X41295Y1228D01*
G01X41289Y1211D01*
G01X41286Y1191D01*
G01X41285Y1170D01*
G01X41285Y1163D01*
G01X41288Y1125D01*
G01X41299Y1092D01*
G01X41316Y1064D01*
G01X41341Y1041D01*
G01X41371Y1023D01*
G01X41407Y1008D01*
G01X41447Y997D01*
G01X41493Y990D01*
G01X41510Y989D01*
G01X41525Y987D01*
G01X41539Y985D01*
G01X41563Y979D01*
G01X41572Y976D01*
G01X41581Y972D01*
G01X41589Y967D01*
G01X41596Y963D01*
G01X41604Y955D01*
G01X41607Y949D01*
G01X41611Y939D01*
G01X41612Y929D01*
G01X41611Y919D01*
G01X41607Y910D01*
G01X41601Y902D01*
G01X41592Y894D01*
G01X41580Y886D01*
G01X41564Y880D01*
G01X41543Y877D01*
G01X41518Y876D01*
G01X41490Y877D01*
G01X41466Y883D01*
G01X41446Y892D01*
G01X41429Y904D01*
G01X41416Y918D01*
G01X41405Y934D01*
G01X41396Y950D01*
G01X41391Y967D01*
G01X41259Y924D01*
G01X41262Y909D01*
G01X41267Y894D01*
G01X41272Y878D01*
G01X41280Y863D01*
G01X41289Y847D01*
G01X41300Y832D01*
G01X41314Y818D01*
G01X41328Y805D01*
G01X41344Y792D01*
G01X41363Y781D01*
G01X41384Y771D01*
G01X41407Y762D01*
G01X41431Y755D01*
G01X41457Y750D01*
G01X41487Y747D01*
G01X41518Y746D01*
G01X41571Y749D01*
G01X41618Y759D01*
G01X41659Y775D01*
G01X41694Y797D01*
G01X41721Y823D01*
G01X41739Y855D01*
G01X41751Y891D01*
G01X41755Y932D01*
G01X41755Y937D01*
G01X41751Y973D01*
G01X41741Y1005D01*
G01X41723Y1032D01*
G01X41699Y1056D01*
G01X41670Y1075D01*
G01X41637Y1091D01*
G01X41600Y1102D01*
G01X41559Y1109D01*
G01X41524Y1114D01*
G01X41495Y1118D01*
G01X41472Y1124D01*
G01X41455Y1130D01*
G01X41442Y1136D01*
G01X41432Y1145D01*
G01X41426Y1155D01*
G01X41424Y1168D01*
G01X41425Y1178D01*
G01X41429Y1186D01*
G01X41436Y1194D01*
G01X41445Y1201D01*
G01X41455Y1207D01*
G01X41467Y1211D01*
G01X41481Y1213D01*
G01X41498Y1214D01*
G01X41517Y1213D01*
G01X41535Y1209D01*
G01X41550Y1203D01*
G01X41564Y1196D01*
G01X41576Y1186D01*
G01X41585Y1175D01*
G01X41594Y1162D01*
G01X41600Y1148D01*
G01X41729Y1201D01*
G01X41718Y1224D01*
G01X41711Y1236D01*
G01X41704Y1249D01*
G01X41694Y1263D01*
G01X41683Y1275D01*
G01X41671Y1287D01*
G01X41658Y1297D01*
G01X41643Y1307D01*
G01X41628Y1316D01*
G01X41610Y1324D01*
G01X41571Y1337D01*
G01X41548Y1342D01*
G01X41524Y1345D01*
G37*

%LPD*%
G36*
G01X39697Y1562D02*
G01X39552Y1562D01*
G01X39552Y1247D01*
G01X39532Y1247D01*
G01X39519Y1268D01*
G01X39505Y1287D01*
G01X39488Y1304D01*
G01X39469Y1318D01*
G01X39448Y1330D01*
G01X39423Y1339D01*
G01X39394Y1344D01*
G01X39362Y1346D01*
G01X39335Y1344D01*
G01X39311Y1341D01*
G01X39286Y1334D01*
G01X39263Y1325D01*
G01X39240Y1314D01*
G01X39220Y1301D01*
G01X39200Y1286D01*
G01X39182Y1270D01*
G01X39166Y1250D01*
G01X39152Y1227D01*
G01X39139Y1204D01*
G01X39128Y1178D01*
G01X39120Y1151D01*
G01X39113Y1121D01*
G01X39109Y1090D01*
G01X39108Y1056D01*
G01X39108Y1036D01*
G01X39109Y1001D01*
G01X39112Y969D01*
G01X39118Y939D01*
G01X39126Y911D01*
G01X39137Y885D01*
G01X39149Y862D01*
G01X39163Y840D01*
G01X39179Y820D01*
G01X39196Y803D01*
G01X39215Y788D01*
G01X39236Y775D01*
G01X39258Y764D01*
G01X39281Y756D01*
G01X39305Y751D01*
G01X39329Y747D01*
G01X39354Y746D01*
G01X39375Y747D01*
G01X39393Y748D01*
G01X39411Y750D01*
G01X39425Y754D01*
G01X39440Y758D01*
G01X39466Y768D01*
G01X39476Y774D01*
G01X39486Y782D01*
G01X39503Y799D01*
G01X39509Y807D01*
G01X39516Y816D01*
G01X39528Y834D01*
G01X39532Y843D01*
G01X39552Y843D01*
G01X39552Y762D01*
G01X39697Y762D01*
G01X39697Y1562D01*
G37*

%LPC*%
G36*
G01X39434Y1206D02*
G01X39403Y1209D01*
G01X39370Y1206D01*
G01X39341Y1198D01*
G01X39315Y1184D01*
G01X39293Y1165D01*
G01X39275Y1143D01*
G01X39261Y1117D01*
G01X39253Y1086D01*
G01X39250Y1051D01*
G01X39250Y1038D01*
G01X39253Y1004D01*
G01X39261Y974D01*
G01X39275Y947D01*
G01X39293Y924D01*
G01X39315Y906D01*
G01X39341Y894D01*
G01X39370Y886D01*
G01X39403Y883D01*
G01X39434Y886D01*
G01X39463Y894D01*
G01X39489Y908D01*
G01X39512Y927D01*
G01X39530Y949D01*
G01X39542Y975D01*
G01X39550Y1005D01*
G01X39552Y1038D01*
G01X39552Y1051D01*
G01X39550Y1085D01*
G01X39542Y1115D01*
G01X39530Y1142D01*
G01X39512Y1165D01*
G01X39489Y1184D01*
G01X39463Y1198D01*
G01X39434Y1206D01*
G37*

%LPD*%
G36*
G01X38746Y1344D02*
G01X38712Y1346D01*
G01X38682Y1344D01*
G01X38653Y1340D01*
G01X38626Y1333D01*
G01X38600Y1323D01*
G01X38574Y1312D01*
G01X38551Y1298D01*
G01X38528Y1282D01*
G01X38508Y1264D01*
G01X38490Y1245D01*
G01X38474Y1222D01*
G01X38460Y1199D01*
G01X38447Y1173D01*
G01X38437Y1146D01*
G01X38430Y1117D01*
G01X38426Y1086D01*
G01X38425Y1054D01*
G01X38425Y1046D01*
G01X38426Y1012D01*
G01X38430Y980D01*
G01X38436Y950D01*
G01X38445Y922D01*
G01X38457Y895D01*
G01X38472Y869D01*
G01X38488Y846D01*
G01X38506Y825D01*
G01X38526Y807D01*
G01X38548Y791D01*
G01X38571Y778D01*
G01X38597Y767D01*
G01X38624Y757D01*
G01X38652Y751D01*
G01X38682Y747D01*
G01X38714Y746D01*
G01X38741Y747D01*
G01X38767Y749D01*
G01X38789Y753D01*
G01X38811Y759D01*
G01X38831Y766D01*
G01X38849Y773D01*
G01X38866Y781D01*
G01X38882Y789D01*
G01X38896Y800D01*
G01X38908Y810D01*
G01X38919Y821D01*
G01X38930Y833D01*
G01X38939Y844D01*
G01X38946Y855D01*
G01X38952Y867D01*
G01X38958Y878D01*
G01X38834Y947D01*
G01X38826Y935D01*
G01X38817Y923D01*
G01X38806Y912D01*
G01X38793Y901D01*
G01X38777Y894D01*
G01X38758Y888D01*
G01X38737Y884D01*
G01X38712Y883D01*
G01X38684Y885D01*
G01X38671Y887D01*
G01X38658Y891D01*
G01X38646Y896D01*
G01X38635Y901D01*
G01X38624Y908D01*
G01X38615Y916D01*
G01X38606Y925D01*
G01X38599Y933D01*
G01X38591Y942D01*
G01X38585Y952D01*
G01X38580Y963D01*
G01X38577Y973D01*
G01X38575Y986D01*
G01X38574Y998D01*
G01X38989Y998D01*
G01X38989Y1074D01*
G01X38987Y1097D01*
G01X38984Y1120D01*
G01X38980Y1144D01*
G01X38973Y1168D01*
G01X38964Y1190D01*
G01X38953Y1212D01*
G01X38939Y1233D01*
G01X38922Y1254D01*
G01X38905Y1273D01*
G01X38884Y1289D01*
G01X38862Y1304D01*
G01X38836Y1318D01*
G01X38808Y1330D01*
G01X38778Y1339D01*
G01X38746Y1344D01*
G37*

%LPC*%
G36*
G01X38736Y1212D02*
G01X38709Y1214D01*
G01X38684Y1212D01*
G01X38660Y1207D01*
G01X38639Y1198D01*
G01X38620Y1186D01*
G01X38605Y1171D01*
G01X38593Y1156D01*
G01X38584Y1139D01*
G01X38577Y1122D01*
G01X38844Y1122D01*
G01X38838Y1140D01*
G01X38829Y1158D01*
G01X38817Y1173D01*
G01X38801Y1188D01*
G01X38782Y1199D01*
G01X38760Y1207D01*
G01X38736Y1212D01*
G37*

%LPD*%
G36*
G01X38298Y1562D02*
G01X38155Y1562D01*
G01X38155Y1247D01*
G01X38133Y1247D01*
G01X38120Y1268D01*
G01X38106Y1287D01*
G01X38090Y1304D01*
G01X38072Y1318D01*
G01X38050Y1330D01*
G01X38024Y1339D01*
G01X37995Y1344D01*
G01X37962Y1346D01*
G01X37937Y1344D01*
G01X37912Y1341D01*
G01X37888Y1334D01*
G01X37863Y1325D01*
G01X37841Y1314D01*
G01X37820Y1301D01*
G01X37800Y1286D01*
G01X37782Y1270D01*
G01X37766Y1250D01*
G01X37752Y1227D01*
G01X37740Y1204D01*
G01X37729Y1178D01*
G01X37720Y1151D01*
G01X37713Y1121D01*
G01X37710Y1090D01*
G01X37708Y1056D01*
G01X37708Y1036D01*
G01X37709Y1001D01*
G01X37713Y969D01*
G01X37719Y939D01*
G01X37726Y911D01*
G01X37737Y885D01*
G01X37749Y862D01*
G01X37764Y840D01*
G01X37779Y820D01*
G01X37797Y803D01*
G01X37816Y788D01*
G01X37836Y775D01*
G01X37858Y764D01*
G01X37882Y756D01*
G01X37906Y751D01*
G01X37931Y747D01*
G01X37957Y746D01*
G01X37977Y747D01*
G01X37995Y748D01*
G01X38011Y750D01*
G01X38041Y758D01*
G01X38054Y763D01*
G01X38066Y768D01*
G01X38077Y774D01*
G01X38095Y790D01*
G01X38112Y807D01*
G01X38124Y825D01*
G01X38128Y834D01*
G01X38133Y843D01*
G01X38155Y843D01*
G01X38155Y762D01*
G01X38298Y762D01*
G01X38298Y1562D01*
G37*

%LPC*%
G36*
G01X38035Y1206D02*
G01X38003Y1209D01*
G01X37971Y1206D01*
G01X37943Y1198D01*
G01X37917Y1184D01*
G01X37894Y1165D01*
G01X37876Y1143D01*
G01X37863Y1117D01*
G01X37856Y1086D01*
G01X37853Y1051D01*
G01X37853Y1038D01*
G01X37856Y1004D01*
G01X37863Y974D01*
G01X37876Y947D01*
G01X37894Y924D01*
G01X37917Y906D01*
G01X37943Y894D01*
G01X37971Y886D01*
G01X38003Y883D01*
G01X38035Y886D01*
G01X38064Y894D01*
G01X38090Y908D01*
G01X38112Y927D01*
G01X38131Y949D01*
G01X38145Y975D01*
G01X38153Y1005D01*
G01X38155Y1038D01*
G01X38155Y1051D01*
G01X38153Y1085D01*
G01X38145Y1115D01*
G01X38131Y1142D01*
G01X38112Y1165D01*
G01X38090Y1184D01*
G01X38064Y1198D01*
G01X38035Y1206D01*
G37*

%LPD*%
G36*
G01X36471Y1562D02*
G01X36322Y1562D01*
G01X36322Y1038D01*
G01X36326Y973D01*
G01X36339Y916D01*
G01X36362Y866D01*
G01X36393Y822D01*
G01X36434Y789D01*
G01X36484Y765D01*
G01X36541Y751D01*
G01X36609Y746D01*
G01X36676Y751D01*
G01X36733Y765D01*
G01X36783Y789D01*
G01X36824Y822D01*
G01X36856Y866D01*
G01X36880Y916D01*
G01X36894Y973D01*
G01X36898Y1038D01*
G01X36898Y1562D01*
G01X36746Y1562D01*
G01X36746Y1038D01*
G01X36744Y1005D01*
G01X36738Y975D01*
G01X36727Y949D01*
G01X36713Y927D01*
G01X36694Y909D01*
G01X36670Y896D01*
G01X36642Y889D01*
G01X36609Y886D01*
G01X36576Y889D01*
G01X36547Y896D01*
G01X36523Y909D01*
G01X36504Y927D01*
G01X36490Y949D01*
G01X36479Y975D01*
G01X36473Y1005D01*
G01X36471Y1038D01*
G01X36471Y1562D01*
G37*

%LPD*%
G36*
G01X35986Y1483D02*
G01X35628Y1483D01*
G01X35628Y1346D01*
G01X35958Y1346D01*
G01X36061Y1311D01*
G01X36095Y1209D01*
G01X36095Y909D01*
G01X36093Y895D01*
G01X36087Y884D01*
G01X36077Y878D01*
G01X36062Y876D01*
G01X36057Y876D01*
G01X36044Y878D01*
G01X36034Y884D01*
G01X36029Y895D01*
G01X36027Y909D01*
G01X36027Y1247D01*
G01X35890Y1247D01*
G01X35890Y1206D01*
G01X35869Y1206D01*
G01X35862Y1217D01*
G01X35854Y1227D01*
G01X35834Y1247D01*
G01X35821Y1253D01*
G01X35806Y1258D01*
G01X35788Y1261D01*
G01X35768Y1262D01*
G01X35748Y1261D01*
G01X35729Y1258D01*
G01X35710Y1253D01*
G01X35692Y1247D01*
G01X35675Y1238D01*
G01X35661Y1227D01*
G01X35646Y1215D01*
G01X35633Y1201D01*
G01X35620Y1184D01*
G01X35608Y1164D01*
G01X35599Y1143D01*
G01X35590Y1120D01*
G01X35583Y1095D01*
G01X35579Y1067D01*
G01X35576Y1039D01*
G01X35575Y1008D01*
G01X35575Y1000D01*
G01X35576Y968D01*
G01X35579Y939D01*
G01X35583Y911D01*
G01X35590Y886D01*
G01X35598Y864D01*
G01X35607Y843D01*
G01X35617Y824D01*
G01X35628Y807D01*
G01X35641Y793D01*
G01X35656Y780D01*
G01X35670Y770D01*
G01X35687Y762D01*
G01X35703Y755D01*
G01X35722Y750D01*
G01X35740Y747D01*
G01X35760Y746D01*
G01X35784Y747D01*
G01X35805Y751D01*
G01X35824Y756D01*
G01X35839Y764D01*
G01X35851Y775D01*
G01X35860Y786D01*
G01X35868Y798D01*
G01X35874Y810D01*
G01X35895Y810D01*
G01X35898Y798D01*
G01X35903Y786D01*
G01X35911Y775D01*
G01X35920Y764D01*
G01X35931Y756D01*
G01X35944Y751D01*
G01X35961Y747D01*
G01X35981Y746D01*
G01X36123Y746D01*
G01X36146Y748D01*
G01X36167Y754D01*
G01X36186Y764D01*
G01X36202Y777D01*
G01X36215Y793D01*
G01X36225Y812D01*
G01X36231Y833D01*
G01X36233Y855D01*
G01X36233Y1244D01*
G01X36229Y1300D01*
G01X36216Y1348D01*
G01X36196Y1389D01*
G01X36167Y1422D01*
G01X36129Y1448D01*
G01X36087Y1468D01*
G01X36040Y1479D01*
G01X35986Y1483D01*
G37*

%LPC*%
G36*
G01X35823Y1130D02*
G01X35801Y1132D01*
G01X35780Y1130D01*
G01X35763Y1123D01*
G01X35747Y1113D01*
G01X35735Y1097D01*
G01X35725Y1078D01*
G01X35717Y1057D01*
G01X35713Y1033D01*
G01X35712Y1008D01*
G01X35712Y1000D01*
G01X35713Y974D01*
G01X35717Y950D01*
G01X35725Y929D01*
G01X35735Y911D01*
G01X35747Y896D01*
G01X35763Y884D01*
G01X35780Y878D01*
G01X35801Y876D01*
G01X35823Y878D01*
G01X35842Y884D01*
G01X35858Y896D01*
G01X35869Y911D01*
G01X35879Y929D01*
G01X35885Y950D01*
G01X35889Y974D01*
G01X35890Y1000D01*
G01X35890Y1008D01*
G01X35889Y1033D01*
G01X35885Y1057D01*
G01X35879Y1078D01*
G01X35869Y1097D01*
G01X35858Y1113D01*
G01X35842Y1123D01*
G01X35823Y1130D01*
G37*

%LPD*%
G54D12*
G01X39624Y45339D03*
G01X34544Y45339D03*
G01X21844Y45339D03*
G01X19304Y45339D03*
G01X16764Y45339D03*
G01X14224Y45339D03*
G01X37084Y45339D03*
G01X11684Y45339D03*
G01X9144Y45339D03*
G01X6604Y45339D03*
G01X6604Y47879D03*
G01X6604Y50419D03*
G01X6604Y52959D03*
G01X6604Y55499D03*
G01X6604Y58039D03*
G01X6604Y60579D03*
G01X9144Y60579D03*
G01X11684Y60579D03*
G01X14224Y60579D03*
G01X16764Y60579D03*
G01X19304Y60579D03*
G01X21844Y60579D03*
G01X24384Y60579D03*
G01X26924Y60579D03*
G01X29464Y60579D03*
G01X32004Y60579D03*
G01X34544Y60579D03*
G01X37084Y60579D03*
G01X39624Y60579D03*
G54D13*
G01X19304Y55499D03*
G01X19304Y52959D03*
G01X19304Y50419D03*
G01X19304Y47879D03*
G01X21844Y58039D03*
G01X21844Y55499D03*
G01X21844Y52959D03*
G01X21844Y50419D03*
G01X21844Y47879D03*
G01X19304Y58039D03*
G01X26924Y58039D03*
G01X26924Y55880D03*
G01X26924Y53721D03*
G01X26924Y51435D03*
G01X26924Y49403D03*
G01X26924Y47498D03*
G01X39624Y55499D03*
G01X39624Y51816D03*
G54D14*
G01X15240Y29083D03*
G01X8890Y26543D03*
G54D15*
G01X10160Y36703D03*
G36*
G01X11874Y37528D02*
G01X13525Y37528D01*
G01X13525Y35877D01*
G01X11874Y35877D01*
G01X11874Y37528D01*
G37*
G36*
G01X23304Y17208D02*
G01X24955Y17208D01*
G01X24955Y15557D01*
G01X23304Y15557D01*
G01X23304Y17208D01*
G37*
G01X21590Y16383D03*
G54D14*
G01X20320Y6223D03*
G01X26670Y8763D03*
G36*
G01X34734Y37528D02*
G01X36385Y37528D01*
G01X36385Y35877D01*
G01X34734Y35877D01*
G01X34734Y37528D01*
G37*
G54D15*
G01X33020Y36703D03*
G54D14*
G01X31750Y26543D03*
G01X38100Y29083D03*
G54D12*
G01X24384Y45339D03*
G01X26924Y45339D03*
G01X29464Y45339D03*
G01X32004Y45339D03*
M00*
M02*
