G04 Layer: BottomLayer*
G04 EasyEDA v6.4.7, 2021-04-23T08:58:56+01:00*
G04 f878487c93b54eac8d99160b99debade,c10319bd9b054561a6d5c4568292690b,NaN*
G04 Gerber Generator version 0.2*
G04 Scale: 100 percent, Rotated: No, Reflected: No *
G04 Dimensions in millimeters *
G04 leading zeros omitted , absolute positions ,3 integer and 3 decimal *
%FSLAX33Y33*%
%MOMM*%
G90*
D02*

%ADD12C,1.524000*%
%ADD13C,0.999998*%
%ADD14C,2.794000*%
%ADD15C,1.651000*%

%LPD*%
G54D12*
G01X39624Y45339D03*
G01X34544Y45339D03*
G01X21844Y45339D03*
G01X19304Y45339D03*
G01X16764Y45339D03*
G01X14224Y45339D03*
G01X37084Y45339D03*
G01X11684Y45339D03*
G01X9144Y45339D03*
G01X6604Y45339D03*
G01X6604Y47879D03*
G01X6604Y50419D03*
G01X6604Y52959D03*
G01X6604Y55499D03*
G01X6604Y58039D03*
G01X6604Y60579D03*
G01X9144Y60579D03*
G01X11684Y60579D03*
G01X14224Y60579D03*
G01X16764Y60579D03*
G01X19304Y60579D03*
G01X21844Y60579D03*
G01X24384Y60579D03*
G01X26924Y60579D03*
G01X29464Y60579D03*
G01X32004Y60579D03*
G01X34544Y60579D03*
G01X37084Y60579D03*
G01X39624Y60579D03*
G54D13*
G01X19304Y55499D03*
G01X19304Y52959D03*
G01X19304Y50419D03*
G01X19304Y47879D03*
G01X21844Y58039D03*
G01X21844Y55499D03*
G01X21844Y52959D03*
G01X21844Y50419D03*
G01X21844Y47879D03*
G01X19304Y58039D03*
G01X26924Y58039D03*
G01X26924Y55880D03*
G01X26924Y53721D03*
G01X26924Y51435D03*
G01X26924Y49403D03*
G01X26924Y47498D03*
G01X39624Y55499D03*
G01X39624Y51816D03*
G54D14*
G01X15240Y29083D03*
G01X8890Y26543D03*
G54D15*
G01X10160Y36703D03*
G36*
G01X11874Y37528D02*
G01X13525Y37528D01*
G01X13525Y35877D01*
G01X11874Y35877D01*
G01X11874Y37528D01*
G37*
G36*
G01X23304Y17208D02*
G01X24955Y17208D01*
G01X24955Y15557D01*
G01X23304Y15557D01*
G01X23304Y17208D01*
G37*
G01X21590Y16383D03*
G54D14*
G01X20320Y6223D03*
G01X26670Y8763D03*
G36*
G01X34734Y37528D02*
G01X36385Y37528D01*
G01X36385Y35877D01*
G01X34734Y35877D01*
G01X34734Y37528D01*
G37*
G54D15*
G01X33020Y36703D03*
G54D14*
G01X31750Y26543D03*
G01X38100Y29083D03*
G54D12*
G01X24384Y45339D03*
G01X26924Y45339D03*
G01X29464Y45339D03*
G01X32004Y45339D03*
M00*
M02*
