;Layer: Drill PTH
;EasyEDA v6.4.7, 2021-04-23T08:58:56+01:00
;f878487c93b54eac8d99160b99debade,c10319bd9b054561a6d5c4568292690b,NaN
;Gerber Generator version 0.2
M48
METRIC,LZ,000.000
;Holesize 1 = 0.400 METRIC
T01C0.400
;Holesize 2 = 0.915 METRIC
T02C0.915
;Holesize 3 = 0.991 METRIC
T03C0.991
;Holesize 4 = 1.499 METRIC
T04C1.499
%
G05
G90
T01
X+019304Y+055499
X+019304Y+052959
X+019304Y+050419
X+019304Y+047879
X+021844Y+058039
X+021844Y+055499
X+021844Y+052959
X+021844Y+050419
X+021844Y+047879
X+019304Y+058039
X+026924Y+058039
X+026924Y+055880
X+026924Y+053721
X+026924Y+051435
X+026924Y+049403
X+026924Y+047498
X+039624Y+055499
X+039624Y+051816
T02
X+039624Y+045339
X+034544Y+045339
X+021844Y+045339
X+019304Y+045339
X+016764Y+045339
X+014224Y+045339
X+037084Y+045339
X+011684Y+045339
X+009144Y+045339
X+006604Y+045339
X+006604Y+047879
X+006604Y+050419
X+006604Y+052959
X+006604Y+055499
X+006604Y+058039
X+006604Y+060579
X+009144Y+060579
X+011684Y+060579
X+014224Y+060579
X+016764Y+060579
X+019304Y+060579
X+021844Y+060579
X+024384Y+060579
X+026924Y+060579
X+029464Y+060579
X+032004Y+060579
X+034544Y+060579
X+037084Y+060579
X+039624Y+060579
X+024384Y+045339
X+026924Y+045339
X+029464Y+045339
X+032004Y+045339
T03
X+010160Y+036703
X+012700Y+036703
X+024130Y+016383
X+021590Y+016383
X+035560Y+036703
X+033020Y+036703
T04
X+015240Y+029083
X+008890Y+026543
X+020320Y+006223
X+026670Y+008763
X+031750Y+026543
X+038100Y+029083
M30
